<?xml version="1.0" encoding="UTF-8"?>
<svg xmlns="http://www.w3.org/2000/svg" width="1600" height="1842" viewBox="0 0 1600 1842" role="img" aria-label="Margin of Safety Ranges (Latest Reports)">
<defs>
<linearGradient id="bg" x1="0%" y1="0%" x2="0%" y2="100%"><stop offset="0%" stop-color="#f7fafc"/><stop offset="100%" stop-color="#edf2f7"/></linearGradient>
</defs>
<rect x="0" y="0" width="1600" height="1842" fill="url(#bg)"/>
<text x="190" y="48" font-size="34" font-family="Avenir Next,Segoe UI,Arial,sans-serif" fill="#111827" font-weight="700">Margin of Safety Ranges (Latest Reports)</text>
<text x="190" y="78" font-size="15" font-family="Avenir Next,Segoe UI,Arial,sans-serif" fill="#4b5563">Generated 2026-02-13 12:18 from latest report per ticker in chadwin-codex/companies</text>
<circle cx="190" cy="100" r="6" fill="#f59e0b" stroke="#ffffff" stroke-width="1.5"/>
<text x="202" y="105" font-size="14" font-family="Avenir Next,Segoe UI,Arial,sans-serif" fill="#374151">Bear MoS</text>
<circle cx="340" cy="100" r="6" fill="#2563eb" stroke="#ffffff" stroke-width="1.5"/>
<text x="352" y="105" font-size="14" font-family="Avenir Next,Segoe UI,Arial,sans-serif" fill="#374151">Base MoS</text>
<circle cx="490" cy="100" r="6" fill="#10b981" stroke="#ffffff" stroke-width="1.5"/>
<text x="502" y="105" font-size="14" font-family="Avenir Next,Segoe UI,Arial,sans-serif" fill="#374151">Bull MoS</text>
<line x1="190.00" y1="104" x2="190.00" y2="1752" stroke="#d1d5db" stroke-width="1" stroke-dasharray="3 6"/>
<text x="190.00" y="96" text-anchor="middle" font-size="12" font-family="Avenir Next,Segoe UI,Arial,sans-serif" fill="#4b5563">-219%</text>
<line x1="388.33" y1="104" x2="388.33" y2="1752" stroke="#d1d5db" stroke-width="1" stroke-dasharray="3 6"/>
<text x="388.33" y="96" text-anchor="middle" font-size="12" font-family="Avenir Next,Segoe UI,Arial,sans-serif" fill="#4b5563">-160%</text>
<line x1="586.67" y1="104" x2="586.67" y2="1752" stroke="#d1d5db" stroke-width="1" stroke-dasharray="3 6"/>
<text x="586.67" y="96" text-anchor="middle" font-size="12" font-family="Avenir Next,Segoe UI,Arial,sans-serif" fill="#4b5563">-100%</text>
<line x1="785.00" y1="104" x2="785.00" y2="1752" stroke="#d1d5db" stroke-width="1" stroke-dasharray="3 6"/>
<text x="785.00" y="96" text-anchor="middle" font-size="12" font-family="Avenir Next,Segoe UI,Arial,sans-serif" fill="#4b5563">-40%</text>
<line x1="983.33" y1="104" x2="983.33" y2="1752" stroke="#d1d5db" stroke-width="1" stroke-dasharray="3 6"/>
<text x="983.33" y="96" text-anchor="middle" font-size="12" font-family="Avenir Next,Segoe UI,Arial,sans-serif" fill="#4b5563">19%</text>
<line x1="1181.67" y1="104" x2="1181.67" y2="1752" stroke="#d1d5db" stroke-width="1" stroke-dasharray="3 6"/>
<text x="1181.67" y="96" text-anchor="middle" font-size="12" font-family="Avenir Next,Segoe UI,Arial,sans-serif" fill="#4b5563">79%</text>
<line x1="1380.00" y1="104" x2="1380.00" y2="1752" stroke="#d1d5db" stroke-width="1" stroke-dasharray="3 6"/>
<text x="1380.00" y="96" text-anchor="middle" font-size="12" font-family="Avenir Next,Segoe UI,Arial,sans-serif" fill="#4b5563">139%</text>
<rect x="913.38" y="114" width="12.00" height="1644" fill="#111827" opacity="0.08"/>
<rect x="50" y="120.0" width="1330" height="34" fill="#ffffff" opacity="0.45"/>
<line x1="862.11" y1="137.00" x2="1280.83" y2="137.00" stroke="#2563eb" stroke-width="9" stroke-linecap="round" opacity="0.35"/>
<circle cx="862.11" cy="137.00" r="6" fill="#f59e0b" stroke="#ffffff" stroke-width="1.5"/>
<circle cx="1035.79" cy="137.00" r="7" fill="#2563eb" stroke="#ffffff" stroke-width="1.5"/>
<circle cx="1280.83" cy="137.00" r="6" fill="#10b981" stroke="#ffffff" stroke-width="1.5"/>
<text x="40" y="142.00" text-anchor="start" font-size="14" font-family="Avenir Next,Segoe UI,Arial,sans-serif" fill="#111827" font-weight="600">US/NICE</text>
<text x="1392" y="142.00" text-anchor="start" font-size="13" font-family="Avenir Next,Segoe UI,Arial,sans-serif" fill="#374151">-17.2% / +35.0% / +108.8%</text>
<rect x="50" y="168.0" width="1330" height="34" fill="#f8fafc" opacity="0.45"/>
<line x1="704.32" y1="185.00" x2="1236.66" y2="185.00" stroke="#2563eb" stroke-width="9" stroke-linecap="round" opacity="0.35"/>
<circle cx="704.32" cy="185.00" r="6" fill="#f59e0b" stroke="#ffffff" stroke-width="1.5"/>
<circle cx="1008.00" cy="185.00" r="7" fill="#2563eb" stroke="#ffffff" stroke-width="1.5"/>
<circle cx="1236.66" cy="185.00" r="6" fill="#10b981" stroke="#ffffff" stroke-width="1.5"/>
<text x="40" y="190.00" text-anchor="start" font-size="14" font-family="Avenir Next,Segoe UI,Arial,sans-serif" fill="#111827" font-weight="600">US/SLDE</text>
<text x="1392" y="190.00" text-anchor="start" font-size="13" font-family="Avenir Next,Segoe UI,Arial,sans-serif" fill="#374151">-64.7% / +26.7% / +95.5%</text>
<rect x="50" y="216.0" width="1330" height="34" fill="#ffffff" opacity="0.45"/>
<line x1="769.29" y1="233.00" x2="1187.38" y2="233.00" stroke="#2563eb" stroke-width="9" stroke-linecap="round" opacity="0.35"/>
<circle cx="769.29" cy="233.00" r="6" fill="#f59e0b" stroke="#ffffff" stroke-width="1.5"/>
<circle cx="987.94" cy="233.00" r="7" fill="#2563eb" stroke="#ffffff" stroke-width="1.5"/>
<circle cx="1187.38" cy="233.00" r="6" fill="#10b981" stroke="#ffffff" stroke-width="1.5"/>
<text x="40" y="238.00" text-anchor="start" font-size="14" font-family="Avenir Next,Segoe UI,Arial,sans-serif" fill="#111827" font-weight="600">US/SKYW</text>
<text x="1392" y="238.00" text-anchor="start" font-size="13" font-family="Avenir Next,Segoe UI,Arial,sans-serif" fill="#374151">-45.2% / +20.6% / +80.6%</text>
<rect x="50" y="264.0" width="1330" height="34" fill="#f8fafc" opacity="0.45"/>
<line x1="806.95" y1="281.00" x2="1229.12" y2="281.00" stroke="#2563eb" stroke-width="9" stroke-linecap="round" opacity="0.35"/>
<circle cx="806.95" cy="281.00" r="6" fill="#f59e0b" stroke="#ffffff" stroke-width="1.5"/>
<circle cx="985.72" cy="281.00" r="7" fill="#2563eb" stroke="#ffffff" stroke-width="1.5"/>
<circle cx="1229.12" cy="281.00" r="6" fill="#10b981" stroke="#ffffff" stroke-width="1.5"/>
<text x="40" y="286.00" text-anchor="start" font-size="14" font-family="Avenir Next,Segoe UI,Arial,sans-serif" fill="#111827" font-weight="600">US/FC</text>
<text x="1392" y="286.00" text-anchor="start" font-size="13" font-family="Avenir Next,Segoe UI,Arial,sans-serif" fill="#374151">-33.8% / +20.0% / +93.2%</text>
<rect x="50" y="312.0" width="1330" height="34" fill="#ffffff" opacity="0.45"/>
<line x1="810.40" y1="329.00" x2="1219.01" y2="329.00" stroke="#2563eb" stroke-width="9" stroke-linecap="round" opacity="0.35"/>
<circle cx="810.40" cy="329.00" r="6" fill="#f59e0b" stroke="#ffffff" stroke-width="1.5"/>
<circle cx="985.71" cy="329.00" r="7" fill="#2563eb" stroke="#ffffff" stroke-width="1.5"/>
<circle cx="1219.01" cy="329.00" r="6" fill="#10b981" stroke="#ffffff" stroke-width="1.5"/>
<text x="40" y="334.00" text-anchor="start" font-size="14" font-family="Avenir Next,Segoe UI,Arial,sans-serif" fill="#111827" font-weight="600">US/ATGE</text>
<text x="1392" y="334.00" text-anchor="start" font-size="13" font-family="Avenir Next,Segoe UI,Arial,sans-serif" fill="#374151">-32.8% / +20.0% / +90.2%</text>
<rect x="50" y="360.0" width="1330" height="34" fill="#f8fafc" opacity="0.45"/>
<line x1="815.39" y1="377.00" x2="1206.35" y2="377.00" stroke="#2563eb" stroke-width="9" stroke-linecap="round" opacity="0.35"/>
<circle cx="815.39" cy="377.00" r="6" fill="#f59e0b" stroke="#ffffff" stroke-width="1.5"/>
<circle cx="976.31" cy="377.00" r="7" fill="#2563eb" stroke="#ffffff" stroke-width="1.5"/>
<circle cx="1206.35" cy="377.00" r="6" fill="#10b981" stroke="#ffffff" stroke-width="1.5"/>
<text x="40" y="382.00" text-anchor="start" font-size="14" font-family="Avenir Next,Segoe UI,Arial,sans-serif" fill="#111827" font-weight="600">US/ACIW</text>
<text x="1392" y="382.00" text-anchor="start" font-size="13" font-family="Avenir Next,Segoe UI,Arial,sans-serif" fill="#374151">-31.3% / +17.1% / +86.4%</text>
<rect x="50" y="408.0" width="1330" height="34" fill="#ffffff" opacity="0.45"/>
<line x1="783.03" y1="425.00" x2="1220.02" y2="425.00" stroke="#2563eb" stroke-width="9" stroke-linecap="round" opacity="0.35"/>
<circle cx="783.03" cy="425.00" r="6" fill="#f59e0b" stroke="#ffffff" stroke-width="1.5"/>
<circle cx="971.47" cy="425.00" r="7" fill="#2563eb" stroke="#ffffff" stroke-width="1.5"/>
<circle cx="1220.02" cy="425.00" r="6" fill="#10b981" stroke="#ffffff" stroke-width="1.5"/>
<text x="40" y="430.00" text-anchor="start" font-size="14" font-family="Avenir Next,Segoe UI,Arial,sans-serif" fill="#111827" font-weight="600">US/GL</text>
<text x="1392" y="430.00" text-anchor="start" font-size="13" font-family="Avenir Next,Segoe UI,Arial,sans-serif" fill="#374151">-41.0% / +15.7% / +90.5%</text>
<rect x="50" y="456.0" width="1330" height="34" fill="#f8fafc" opacity="0.45"/>
<line x1="764.28" y1="473.00" x2="1219.45" y2="473.00" stroke="#2563eb" stroke-width="9" stroke-linecap="round" opacity="0.35"/>
<circle cx="764.28" cy="473.00" r="6" fill="#f59e0b" stroke="#ffffff" stroke-width="1.5"/>
<circle cx="970.86" cy="473.00" r="7" fill="#2563eb" stroke="#ffffff" stroke-width="1.5"/>
<circle cx="1219.45" cy="473.00" r="6" fill="#10b981" stroke="#ffffff" stroke-width="1.5"/>
<text x="40" y="478.00" text-anchor="start" font-size="14" font-family="Avenir Next,Segoe UI,Arial,sans-serif" fill="#111827" font-weight="600">US/PAYC</text>
<text x="1392" y="478.00" text-anchor="start" font-size="13" font-family="Avenir Next,Segoe UI,Arial,sans-serif" fill="#374151">-46.7% / +15.5% / +90.3%</text>
<rect x="50" y="504.0" width="1330" height="34" fill="#ffffff" opacity="0.45"/>
<line x1="797.11" y1="521.00" x2="1124.05" y2="521.00" stroke="#2563eb" stroke-width="9" stroke-linecap="round" opacity="0.35"/>
<circle cx="797.11" cy="521.00" r="6" fill="#f59e0b" stroke="#ffffff" stroke-width="1.5"/>
<circle cx="962.45" cy="521.00" r="7" fill="#2563eb" stroke="#ffffff" stroke-width="1.5"/>
<circle cx="1124.05" cy="521.00" r="6" fill="#10b981" stroke="#ffffff" stroke-width="1.5"/>
<text x="40" y="526.00" text-anchor="start" font-size="14" font-family="Avenir Next,Segoe UI,Arial,sans-serif" fill="#111827" font-weight="600">US/QLYS</text>
<text x="1392" y="526.00" text-anchor="start" font-size="13" font-family="Avenir Next,Segoe UI,Arial,sans-serif" fill="#374151">-36.8% / +13.0% / +61.6%</text>
<rect x="50" y="552.0" width="1330" height="34" fill="#f8fafc" opacity="0.45"/>
<line x1="742.64" y1="569.00" x2="1174.35" y2="569.00" stroke="#2563eb" stroke-width="9" stroke-linecap="round" opacity="0.35"/>
<circle cx="742.64" cy="569.00" r="6" fill="#f59e0b" stroke="#ffffff" stroke-width="1.5"/>
<circle cx="955.17" cy="569.00" r="7" fill="#2563eb" stroke="#ffffff" stroke-width="1.5"/>
<circle cx="1174.35" cy="569.00" r="6" fill="#10b981" stroke="#ffffff" stroke-width="1.5"/>
<text x="40" y="574.00" text-anchor="start" font-size="14" font-family="Avenir Next,Segoe UI,Arial,sans-serif" fill="#111827" font-weight="600">US/LYFT</text>
<text x="1392" y="574.00" text-anchor="start" font-size="13" font-family="Avenir Next,Segoe UI,Arial,sans-serif" fill="#374151">-53.2% / +10.8% / +76.7%</text>
<rect x="50" y="600.0" width="1330" height="34" fill="#ffffff" opacity="0.45"/>
<line x1="793.07" y1="617.00" x2="1118.06" y2="617.00" stroke="#2563eb" stroke-width="9" stroke-linecap="round" opacity="0.35"/>
<circle cx="793.07" cy="617.00" r="6" fill="#f59e0b" stroke="#ffffff" stroke-width="1.5"/>
<circle cx="954.06" cy="617.00" r="7" fill="#2563eb" stroke="#ffffff" stroke-width="1.5"/>
<circle cx="1118.06" cy="617.00" r="6" fill="#10b981" stroke="#ffffff" stroke-width="1.5"/>
<text x="40" y="622.00" text-anchor="start" font-size="14" font-family="Avenir Next,Segoe UI,Arial,sans-serif" fill="#111827" font-weight="600">US/CROX</text>
<text x="1392" y="622.00" text-anchor="start" font-size="13" font-family="Avenir Next,Segoe UI,Arial,sans-serif" fill="#374151">-38.0% / +10.4% / +59.8%</text>
<rect x="50" y="648.0" width="1330" height="34" fill="#f8fafc" opacity="0.45"/>
<line x1="785.68" y1="665.00" x2="1122.60" y2="665.00" stroke="#2563eb" stroke-width="9" stroke-linecap="round" opacity="0.35"/>
<circle cx="785.68" cy="665.00" r="6" fill="#f59e0b" stroke="#ffffff" stroke-width="1.5"/>
<circle cx="947.53" cy="665.00" r="7" fill="#2563eb" stroke="#ffffff" stroke-width="1.5"/>
<circle cx="1122.60" cy="665.00" r="6" fill="#10b981" stroke="#ffffff" stroke-width="1.5"/>
<text x="40" y="670.00" text-anchor="start" font-size="14" font-family="Avenir Next,Segoe UI,Arial,sans-serif" fill="#111827" font-weight="600">US/ANF</text>
<text x="1392" y="670.00" text-anchor="start" font-size="13" font-family="Avenir Next,Segoe UI,Arial,sans-serif" fill="#374151">-40.2% / +8.5% / +61.2%</text>
<rect x="50" y="696.0" width="1330" height="34" fill="#ffffff" opacity="0.45"/>
<line x1="833.12" y1="713.00" x2="1110.39" y2="713.00" stroke="#2563eb" stroke-width="9" stroke-linecap="round" opacity="0.35"/>
<circle cx="833.12" cy="713.00" r="6" fill="#f59e0b" stroke="#ffffff" stroke-width="1.5"/>
<circle cx="947.45" cy="713.00" r="7" fill="#2563eb" stroke="#ffffff" stroke-width="1.5"/>
<circle cx="1110.39" cy="713.00" r="6" fill="#10b981" stroke="#ffffff" stroke-width="1.5"/>
<text x="40" y="718.00" text-anchor="start" font-size="14" font-family="Avenir Next,Segoe UI,Arial,sans-serif" fill="#111827" font-weight="600">US/LNC</text>
<text x="1392" y="718.00" text-anchor="start" font-size="13" font-family="Avenir Next,Segoe UI,Arial,sans-serif" fill="#374151">-26.0% / +8.4% / +57.5%</text>
<rect x="50" y="744.0" width="1330" height="34" fill="#f8fafc" opacity="0.45"/>
<line x1="732.37" y1="761.00" x2="1149.64" y2="761.00" stroke="#2563eb" stroke-width="9" stroke-linecap="round" opacity="0.35"/>
<circle cx="732.37" cy="761.00" r="6" fill="#f59e0b" stroke="#ffffff" stroke-width="1.5"/>
<circle cx="937.07" cy="761.00" r="7" fill="#2563eb" stroke="#ffffff" stroke-width="1.5"/>
<circle cx="1149.64" cy="761.00" r="6" fill="#10b981" stroke="#ffffff" stroke-width="1.5"/>
<text x="40" y="766.00" text-anchor="start" font-size="14" font-family="Avenir Next,Segoe UI,Arial,sans-serif" fill="#111827" font-weight="600">US/BYD</text>
<text x="1392" y="766.00" text-anchor="start" font-size="13" font-family="Avenir Next,Segoe UI,Arial,sans-serif" fill="#374151">-56.3% / +5.3% / +69.3%</text>
<rect x="50" y="792.0" width="1330" height="34" fill="#ffffff" opacity="0.45"/>
<line x1="792.83" y1="809.00" x2="1133.86" y2="809.00" stroke="#2563eb" stroke-width="9" stroke-linecap="round" opacity="0.35"/>
<circle cx="792.83" cy="809.00" r="6" fill="#f59e0b" stroke="#ffffff" stroke-width="1.5"/>
<circle cx="933.09" cy="809.00" r="7" fill="#2563eb" stroke="#ffffff" stroke-width="1.5"/>
<circle cx="1133.86" cy="809.00" r="6" fill="#10b981" stroke="#ffffff" stroke-width="1.5"/>
<text x="40" y="814.00" text-anchor="start" font-size="14" font-family="Avenir Next,Segoe UI,Arial,sans-serif" fill="#111827" font-weight="600">US/TRV</text>
<text x="1392" y="814.00" text-anchor="start" font-size="13" font-family="Avenir Next,Segoe UI,Arial,sans-serif" fill="#374151">-38.1% / +4.1% / +64.5%</text>
<rect x="50" y="840.0" width="1330" height="34" fill="#f8fafc" opacity="0.45"/>
<line x1="803.09" y1="857.00" x2="1110.21" y2="857.00" stroke="#2563eb" stroke-width="9" stroke-linecap="round" opacity="0.35"/>
<circle cx="803.09" cy="857.00" r="6" fill="#f59e0b" stroke="#ffffff" stroke-width="1.5"/>
<circle cx="925.16" cy="857.00" r="7" fill="#2563eb" stroke="#ffffff" stroke-width="1.5"/>
<circle cx="1110.21" cy="857.00" r="6" fill="#10b981" stroke="#ffffff" stroke-width="1.5"/>
<text x="40" y="862.00" text-anchor="start" font-size="14" font-family="Avenir Next,Segoe UI,Arial,sans-serif" fill="#111827" font-weight="600">US/HRMY</text>
<text x="1392" y="862.00" text-anchor="start" font-size="13" font-family="Avenir Next,Segoe UI,Arial,sans-serif" fill="#374151">-35.0% / +1.7% / +57.4%</text>
<rect x="50" y="888.0" width="1330" height="34" fill="#ffffff" opacity="0.45"/>
<line x1="740.01" y1="905.00" x2="1052.99" y2="905.00" stroke="#2563eb" stroke-width="9" stroke-linecap="round" opacity="0.35"/>
<circle cx="740.01" cy="905.00" r="6" fill="#f59e0b" stroke="#ffffff" stroke-width="1.5"/>
<circle cx="922.67" cy="905.00" r="7" fill="#2563eb" stroke="#ffffff" stroke-width="1.5"/>
<circle cx="1052.99" cy="905.00" r="6" fill="#10b981" stroke="#ffffff" stroke-width="1.5"/>
<text x="40" y="910.00" text-anchor="start" font-size="14" font-family="Avenir Next,Segoe UI,Arial,sans-serif" fill="#111827" font-weight="600">US/CARG</text>
<text x="1392" y="910.00" text-anchor="start" font-size="13" font-family="Avenir Next,Segoe UI,Arial,sans-serif" fill="#374151">-54.0% / +1.0% / +40.2%</text>
<rect x="50" y="936.0" width="1330" height="34" fill="#f8fafc" opacity="0.45"/>
<line x1="750.03" y1="953.00" x2="1157.72" y2="953.00" stroke="#2563eb" stroke-width="9" stroke-linecap="round" opacity="0.35"/>
<circle cx="750.03" cy="953.00" r="6" fill="#f59e0b" stroke="#ffffff" stroke-width="1.5"/>
<circle cx="921.48" cy="953.00" r="7" fill="#2563eb" stroke="#ffffff" stroke-width="1.5"/>
<circle cx="1157.72" cy="953.00" r="6" fill="#10b981" stroke="#ffffff" stroke-width="1.5"/>
<text x="40" y="958.00" text-anchor="start" font-size="14" font-family="Avenir Next,Segoe UI,Arial,sans-serif" fill="#111827" font-weight="600">US/CALM</text>
<text x="1392" y="958.00" text-anchor="start" font-size="13" font-family="Avenir Next,Segoe UI,Arial,sans-serif" fill="#374151">-51.0% / +0.6% / +71.7%</text>
<rect x="50" y="984.0" width="1330" height="34" fill="#ffffff" opacity="0.45"/>
<line x1="803.76" y1="1001.00" x2="986.78" y2="1001.00" stroke="#2563eb" stroke-width="9" stroke-linecap="round" opacity="0.35"/>
<circle cx="803.76" cy="1001.00" r="6" fill="#f59e0b" stroke="#ffffff" stroke-width="1.5"/>
<circle cx="920.38" cy="1001.00" r="7" fill="#2563eb" stroke="#ffffff" stroke-width="1.5"/>
<circle cx="986.78" cy="1001.00" r="6" fill="#10b981" stroke="#ffffff" stroke-width="1.5"/>
<text x="40" y="1006.00" text-anchor="start" font-size="14" font-family="Avenir Next,Segoe UI,Arial,sans-serif" fill="#111827" font-weight="600">US/BRK.B</text>
<text x="1392" y="1006.00" text-anchor="start" font-size="13" font-family="Avenir Next,Segoe UI,Arial,sans-serif" fill="#374151">-34.8% / +0.3% / +20.3%</text>
<rect x="50" y="1032.0" width="1330" height="34" fill="#f8fafc" opacity="0.45"/>
<line x1="831.94" y1="1049.00" x2="950.42" y2="1049.00" stroke="#2563eb" stroke-width="9" stroke-linecap="round" opacity="0.35"/>
<circle cx="831.94" cy="1049.00" r="6" fill="#f59e0b" stroke="#ffffff" stroke-width="1.5"/>
<circle cx="919.78" cy="1049.00" r="7" fill="#2563eb" stroke="#ffffff" stroke-width="1.5"/>
<circle cx="950.42" cy="1049.00" r="6" fill="#10b981" stroke="#ffffff" stroke-width="1.5"/>
<text x="40" y="1054.00" text-anchor="start" font-size="14" font-family="Avenir Next,Segoe UI,Arial,sans-serif" fill="#111827" font-weight="600">US/BHF</text>
<text x="1392" y="1054.00" text-anchor="start" font-size="13" font-family="Avenir Next,Segoe UI,Arial,sans-serif" fill="#374151">-26.3% / +0.1% / +9.3%</text>
<rect x="50" y="1080.0" width="1330" height="34" fill="#ffffff" opacity="0.45"/>
<line x1="713.59" y1="1097.00" x2="1183.73" y2="1097.00" stroke="#2563eb" stroke-width="9" stroke-linecap="round" opacity="0.35"/>
<circle cx="713.59" cy="1097.00" r="6" fill="#f59e0b" stroke="#ffffff" stroke-width="1.5"/>
<circle cx="916.11" cy="1097.00" r="7" fill="#2563eb" stroke="#ffffff" stroke-width="1.5"/>
<circle cx="1183.73" cy="1097.00" r="6" fill="#10b981" stroke="#ffffff" stroke-width="1.5"/>
<text x="40" y="1102.00" text-anchor="start" font-size="14" font-family="Avenir Next,Segoe UI,Arial,sans-serif" fill="#111827" font-weight="600">US/SM</text>
<text x="1392" y="1102.00" text-anchor="start" font-size="13" font-family="Avenir Next,Segoe UI,Arial,sans-serif" fill="#374151">-61.9% / -1.0% / +79.5%</text>
<rect x="50" y="1128.0" width="1330" height="34" fill="#f8fafc" opacity="0.45"/>
<line x1="742.58" y1="1145.00" x2="963.23" y2="1145.00" stroke="#2563eb" stroke-width="9" stroke-linecap="round" opacity="0.35"/>
<circle cx="742.58" cy="1145.00" r="6" fill="#f59e0b" stroke="#ffffff" stroke-width="1.5"/>
<circle cx="913.72" cy="1145.00" r="7" fill="#2563eb" stroke="#ffffff" stroke-width="1.5"/>
<circle cx="963.23" cy="1145.00" r="6" fill="#10b981" stroke="#ffffff" stroke-width="1.5"/>
<text x="40" y="1150.00" text-anchor="start" font-size="14" font-family="Avenir Next,Segoe UI,Arial,sans-serif" fill="#111827" font-weight="600">US/FHI</text>
<text x="1392" y="1150.00" text-anchor="start" font-size="13" font-family="Avenir Next,Segoe UI,Arial,sans-serif" fill="#374151">-53.2% / -1.7% / +13.2%</text>
<rect x="50" y="1176.0" width="1330" height="34" fill="#ffffff" opacity="0.45"/>
<line x1="696.99" y1="1193.00" x2="1107.33" y2="1193.00" stroke="#2563eb" stroke-width="9" stroke-linecap="round" opacity="0.35"/>
<circle cx="696.99" cy="1193.00" r="6" fill="#f59e0b" stroke="#ffffff" stroke-width="1.5"/>
<circle cx="906.82" cy="1193.00" r="7" fill="#2563eb" stroke="#ffffff" stroke-width="1.5"/>
<circle cx="1107.33" cy="1193.00" r="6" fill="#10b981" stroke="#ffffff" stroke-width="1.5"/>
<text x="40" y="1198.00" text-anchor="start" font-size="14" font-family="Avenir Next,Segoe UI,Arial,sans-serif" fill="#111827" font-weight="600">US/FIG</text>
<text x="1392" y="1198.00" text-anchor="start" font-size="13" font-family="Avenir Next,Segoe UI,Arial,sans-serif" fill="#374151">-66.9% / -3.8% / +56.6%</text>
<rect x="50" y="1224.0" width="1330" height="34" fill="#f8fafc" opacity="0.45"/>
<line x1="759.21" y1="1241.00" x2="1062.14" y2="1241.00" stroke="#2563eb" stroke-width="9" stroke-linecap="round" opacity="0.35"/>
<circle cx="759.21" cy="1241.00" r="6" fill="#f59e0b" stroke="#ffffff" stroke-width="1.5"/>
<circle cx="893.83" cy="1241.00" r="7" fill="#2563eb" stroke="#ffffff" stroke-width="1.5"/>
<circle cx="1062.14" cy="1241.00" r="6" fill="#10b981" stroke="#ffffff" stroke-width="1.5"/>
<text x="40" y="1246.00" text-anchor="start" font-size="14" font-family="Avenir Next,Segoe UI,Arial,sans-serif" fill="#111827" font-weight="600">US/TTD</text>
<text x="1392" y="1246.00" text-anchor="start" font-size="13" font-family="Avenir Next,Segoe UI,Arial,sans-serif" fill="#374151">-48.2% / -7.7% / +43.0%</text>
<rect x="50" y="1272.0" width="1330" height="34" fill="#ffffff" opacity="0.45"/>
<line x1="718.85" y1="1289.00" x2="938.98" y2="1289.00" stroke="#2563eb" stroke-width="9" stroke-linecap="round" opacity="0.35"/>
<circle cx="718.85" cy="1289.00" r="6" fill="#f59e0b" stroke="#ffffff" stroke-width="1.5"/>
<circle cx="892.52" cy="1289.00" r="7" fill="#2563eb" stroke="#ffffff" stroke-width="1.5"/>
<circle cx="938.98" cy="1289.00" r="6" fill="#10b981" stroke="#ffffff" stroke-width="1.5"/>
<text x="40" y="1294.00" text-anchor="start" font-size="14" font-family="Avenir Next,Segoe UI,Arial,sans-serif" fill="#111827" font-weight="600">US/ASML</text>
<text x="1392" y="1294.00" text-anchor="start" font-size="13" font-family="Avenir Next,Segoe UI,Arial,sans-serif" fill="#374151">-60.3% / -8.1% / +5.9%</text>
<rect x="50" y="1320.0" width="1330" height="34" fill="#f8fafc" opacity="0.45"/>
<line x1="751.92" y1="1337.00" x2="1031.73" y2="1337.00" stroke="#2563eb" stroke-width="9" stroke-linecap="round" opacity="0.35"/>
<circle cx="751.92" cy="1337.00" r="6" fill="#f59e0b" stroke="#ffffff" stroke-width="1.5"/>
<circle cx="887.93" cy="1337.00" r="7" fill="#2563eb" stroke="#ffffff" stroke-width="1.5"/>
<circle cx="1031.73" cy="1337.00" r="6" fill="#10b981" stroke="#ffffff" stroke-width="1.5"/>
<text x="40" y="1342.00" text-anchor="start" font-size="14" font-family="Avenir Next,Segoe UI,Arial,sans-serif" fill="#111827" font-weight="600">US/LPLA</text>
<text x="1392" y="1342.00" text-anchor="start" font-size="13" font-family="Avenir Next,Segoe UI,Arial,sans-serif" fill="#374151">-50.4% / -9.5% / +33.8%</text>
<rect x="50" y="1368.0" width="1330" height="34" fill="#ffffff" opacity="0.45"/>
<line x1="735.66" y1="1385.00" x2="968.70" y2="1385.00" stroke="#2563eb" stroke-width="9" stroke-linecap="round" opacity="0.35"/>
<circle cx="735.66" cy="1385.00" r="6" fill="#f59e0b" stroke="#ffffff" stroke-width="1.5"/>
<circle cx="840.91" cy="1385.00" r="7" fill="#2563eb" stroke="#ffffff" stroke-width="1.5"/>
<circle cx="968.70" cy="1385.00" r="6" fill="#10b981" stroke="#ffffff" stroke-width="1.5"/>
<text x="40" y="1390.00" text-anchor="start" font-size="14" font-family="Avenir Next,Segoe UI,Arial,sans-serif" fill="#111827" font-weight="600">US/WHD</text>
<text x="1392" y="1390.00" text-anchor="start" font-size="13" font-family="Avenir Next,Segoe UI,Arial,sans-serif" fill="#374151">-55.3% / -23.6% / +14.8%</text>
<rect x="50" y="1416.0" width="1330" height="34" fill="#f8fafc" opacity="0.45"/>
<line x1="736.26" y1="1433.00" x2="949.65" y2="1433.00" stroke="#2563eb" stroke-width="9" stroke-linecap="round" opacity="0.35"/>
<circle cx="736.26" cy="1433.00" r="6" fill="#f59e0b" stroke="#ffffff" stroke-width="1.5"/>
<circle cx="839.25" cy="1433.00" r="7" fill="#2563eb" stroke="#ffffff" stroke-width="1.5"/>
<circle cx="949.65" cy="1433.00" r="6" fill="#10b981" stroke="#ffffff" stroke-width="1.5"/>
<text x="40" y="1438.00" text-anchor="start" font-size="14" font-family="Avenir Next,Segoe UI,Arial,sans-serif" fill="#111827" font-weight="600">US/BRC</text>
<text x="1392" y="1438.00" text-anchor="start" font-size="13" font-family="Avenir Next,Segoe UI,Arial,sans-serif" fill="#374151">-55.1% / -24.1% / +9.1%</text>
<rect x="50" y="1464.0" width="1330" height="34" fill="#ffffff" opacity="0.45"/>
<line x1="718.17" y1="1481.00" x2="972.90" y2="1481.00" stroke="#2563eb" stroke-width="9" stroke-linecap="round" opacity="0.35"/>
<circle cx="718.17" cy="1481.00" r="6" fill="#f59e0b" stroke="#ffffff" stroke-width="1.5"/>
<circle cx="812.41" cy="1481.00" r="7" fill="#2563eb" stroke="#ffffff" stroke-width="1.5"/>
<circle cx="972.90" cy="1481.00" r="6" fill="#10b981" stroke="#ffffff" stroke-width="1.5"/>
<text x="40" y="1486.00" text-anchor="start" font-size="14" font-family="Avenir Next,Segoe UI,Arial,sans-serif" fill="#111827" font-weight="600">JAPAN/79740</text>
<text x="1392" y="1486.00" text-anchor="start" font-size="13" font-family="Avenir Next,Segoe UI,Arial,sans-serif" fill="#374151">-60.5% / -32.2% / +16.1%</text>
<rect x="50" y="1512.0" width="1330" height="34" fill="#f8fafc" opacity="0.45"/>
<line x1="685.06" y1="1529.00" x2="972.38" y2="1529.00" stroke="#2563eb" stroke-width="9" stroke-linecap="round" opacity="0.35"/>
<circle cx="685.06" cy="1529.00" r="6" fill="#f59e0b" stroke="#ffffff" stroke-width="1.5"/>
<circle cx="806.94" cy="1529.00" r="7" fill="#2563eb" stroke="#ffffff" stroke-width="1.5"/>
<circle cx="972.38" cy="1529.00" r="6" fill="#10b981" stroke="#ffffff" stroke-width="1.5"/>
<text x="40" y="1534.00" text-anchor="start" font-size="14" font-family="Avenir Next,Segoe UI,Arial,sans-serif" fill="#111827" font-weight="600">JAPAN/99830</text>
<text x="1392" y="1534.00" text-anchor="start" font-size="13" font-family="Avenir Next,Segoe UI,Arial,sans-serif" fill="#374151">-70.5% / -33.8% / +15.9%</text>
<rect x="50" y="1560.0" width="1330" height="34" fill="#ffffff" opacity="0.45"/>
<line x1="657.25" y1="1577.00" x2="1047.97" y2="1577.00" stroke="#2563eb" stroke-width="9" stroke-linecap="round" opacity="0.35"/>
<circle cx="657.25" cy="1577.00" r="6" fill="#f59e0b" stroke="#ffffff" stroke-width="1.5"/>
<circle cx="802.74" cy="1577.00" r="7" fill="#2563eb" stroke="#ffffff" stroke-width="1.5"/>
<circle cx="1047.97" cy="1577.00" r="6" fill="#10b981" stroke="#ffffff" stroke-width="1.5"/>
<text x="40" y="1582.00" text-anchor="start" font-size="14" font-family="Avenir Next,Segoe UI,Arial,sans-serif" fill="#111827" font-weight="600">US/UPWK</text>
<text x="1392" y="1582.00" text-anchor="start" font-size="13" font-family="Avenir Next,Segoe UI,Arial,sans-serif" fill="#374151">-78.9% / -35.1% / +38.7%</text>
<rect x="50" y="1608.0" width="1330" height="34" fill="#f8fafc" opacity="0.45"/>
<line x1="702.79" y1="1625.00" x2="929.34" y2="1625.00" stroke="#2563eb" stroke-width="9" stroke-linecap="round" opacity="0.35"/>
<circle cx="702.79" cy="1625.00" r="6" fill="#f59e0b" stroke="#ffffff" stroke-width="1.5"/>
<circle cx="795.46" cy="1625.00" r="7" fill="#2563eb" stroke="#ffffff" stroke-width="1.5"/>
<circle cx="929.34" cy="1625.00" r="6" fill="#10b981" stroke="#ffffff" stroke-width="1.5"/>
<text x="40" y="1630.00" text-anchor="start" font-size="14" font-family="Avenir Next,Segoe UI,Arial,sans-serif" fill="#111827" font-weight="600">US/ALL</text>
<text x="1392" y="1630.00" text-anchor="start" font-size="13" font-family="Avenir Next,Segoe UI,Arial,sans-serif" fill="#374151">-65.2% / -37.3% / +3.0%</text>
<rect x="50" y="1656.0" width="1330" height="34" fill="#ffffff" opacity="0.45"/>
<line x1="627.64" y1="1673.00" x2="967.40" y2="1673.00" stroke="#2563eb" stroke-width="9" stroke-linecap="round" opacity="0.35"/>
<circle cx="627.64" cy="1673.00" r="6" fill="#f59e0b" stroke="#ffffff" stroke-width="1.5"/>
<circle cx="784.73" cy="1673.00" r="7" fill="#2563eb" stroke="#ffffff" stroke-width="1.5"/>
<circle cx="967.40" cy="1673.00" r="6" fill="#10b981" stroke="#ffffff" stroke-width="1.5"/>
<text x="40" y="1678.00" text-anchor="start" font-size="14" font-family="Avenir Next,Segoe UI,Arial,sans-serif" fill="#111827" font-weight="600">US/INTC</text>
<text x="1392" y="1678.00" text-anchor="start" font-size="13" font-family="Avenir Next,Segoe UI,Arial,sans-serif" fill="#374151">-87.8% / -40.5% / +14.4%</text>
<rect x="50" y="1704.0" width="1330" height="34" fill="#f8fafc" opacity="0.45"/>
<line x1="289.17" y1="1721.00" x2="907.10" y2="1721.00" stroke="#2563eb" stroke-width="9" stroke-linecap="round" opacity="0.35"/>
<circle cx="289.17" cy="1721.00" r="6" fill="#f59e0b" stroke="#ffffff" stroke-width="1.5"/>
<circle cx="720.61" cy="1721.00" r="7" fill="#2563eb" stroke="#ffffff" stroke-width="1.5"/>
<circle cx="907.10" cy="1721.00" r="6" fill="#10b981" stroke="#ffffff" stroke-width="1.5"/>
<text x="40" y="1726.00" text-anchor="start" font-size="14" font-family="Avenir Next,Segoe UI,Arial,sans-serif" fill="#111827" font-weight="600">US/CB</text>
<text x="1392" y="1726.00" text-anchor="start" font-size="13" font-family="Avenir Next,Segoe UI,Arial,sans-serif" fill="#374151">-189.6% / -59.8% / -3.7%</text>
<line x1="919.38" y1="104" x2="919.38" y2="1752" stroke="#ffffff" stroke-width="5" opacity="0.95"/>
<line x1="919.38" y1="104" x2="919.38" y2="1752" stroke="#111827" stroke-width="2.6"/>
<text x="919.38" y="86" text-anchor="middle" font-size="12" font-family="Avenir Next,Segoe UI,Arial,sans-serif" fill="#111827" font-weight="700">0% MoS</text>
</svg>
