<?xml version="1.0" encoding="UTF-8"?>
<svg xmlns="http://www.w3.org/2000/svg" width="1600" height="1410" viewBox="0 0 1600 1410" role="img" aria-label="US Margin of Safety Ranges (Latest Reports)">
<defs>
<linearGradient id="bg" x1="0%" y1="0%" x2="0%" y2="100%"><stop offset="0%" stop-color="#f7fafc"/><stop offset="100%" stop-color="#edf2f7"/></linearGradient>
</defs>
<rect x="0" y="0" width="1600" height="1410" fill="url(#bg)"/>
<text x="170" y="48" font-size="34" font-family="Avenir Next,Segoe UI,Arial,sans-serif" fill="#111827" font-weight="700">US Margin of Safety Ranges (Latest Reports)</text>
<text x="170" y="78" font-size="15" font-family="Avenir Next,Segoe UI,Arial,sans-serif" fill="#4b5563">Generated 2026-02-12 17:08 from latest report per ticker in companies/US</text>
<circle cx="170" cy="100" r="6" fill="#f59e0b" stroke="#ffffff" stroke-width="1.5"/>
<text x="182" y="105" font-size="14" font-family="Avenir Next,Segoe UI,Arial,sans-serif" fill="#374151">Bear MoS</text>
<circle cx="320" cy="100" r="6" fill="#2563eb" stroke="#ffffff" stroke-width="1.5"/>
<text x="332" y="105" font-size="14" font-family="Avenir Next,Segoe UI,Arial,sans-serif" fill="#374151">Base MoS</text>
<circle cx="470" cy="100" r="6" fill="#10b981" stroke="#ffffff" stroke-width="1.5"/>
<text x="482" y="105" font-size="14" font-family="Avenir Next,Segoe UI,Arial,sans-serif" fill="#374151">Bull MoS</text>
<line x1="170.00" y1="104" x2="170.00" y2="1320" stroke="#d1d5db" stroke-width="1" stroke-dasharray="3 6"/>
<text x="170.00" y="96" text-anchor="middle" font-size="12" font-family="Avenir Next,Segoe UI,Arial,sans-serif" fill="#4b5563">-221%</text>
<line x1="371.67" y1="104" x2="371.67" y2="1320" stroke="#d1d5db" stroke-width="1" stroke-dasharray="3 6"/>
<text x="371.67" y="96" text-anchor="middle" font-size="12" font-family="Avenir Next,Segoe UI,Arial,sans-serif" fill="#4b5563">-158%</text>
<line x1="573.33" y1="104" x2="573.33" y2="1320" stroke="#d1d5db" stroke-width="1" stroke-dasharray="3 6"/>
<text x="573.33" y="96" text-anchor="middle" font-size="12" font-family="Avenir Next,Segoe UI,Arial,sans-serif" fill="#4b5563">-96%</text>
<line x1="775.00" y1="104" x2="775.00" y2="1320" stroke="#d1d5db" stroke-width="1" stroke-dasharray="3 6"/>
<text x="775.00" y="96" text-anchor="middle" font-size="12" font-family="Avenir Next,Segoe UI,Arial,sans-serif" fill="#4b5563">-33%</text>
<line x1="976.67" y1="104" x2="976.67" y2="1320" stroke="#d1d5db" stroke-width="1" stroke-dasharray="3 6"/>
<text x="976.67" y="96" text-anchor="middle" font-size="12" font-family="Avenir Next,Segoe UI,Arial,sans-serif" fill="#4b5563">29%</text>
<line x1="1178.33" y1="104" x2="1178.33" y2="1320" stroke="#d1d5db" stroke-width="1" stroke-dasharray="3 6"/>
<text x="1178.33" y="96" text-anchor="middle" font-size="12" font-family="Avenir Next,Segoe UI,Arial,sans-serif" fill="#4b5563">92%</text>
<line x1="1380.00" y1="104" x2="1380.00" y2="1320" stroke="#d1d5db" stroke-width="1" stroke-dasharray="3 6"/>
<text x="1380.00" y="96" text-anchor="middle" font-size="12" font-family="Avenir Next,Segoe UI,Arial,sans-serif" fill="#4b5563">154%</text>
<rect x="876.10" y="114" width="12.00" height="1212" fill="#111827" opacity="0.08"/>
<rect x="50" y="120.0" width="1330" height="34" fill="#ffffff" opacity="0.45"/>
<line x1="762.19" y1="137.00" x2="1279.17" y2="137.00" stroke="#2563eb" stroke-width="9" stroke-linecap="round" opacity="0.35"/>
<circle cx="762.19" cy="137.00" r="6" fill="#f59e0b" stroke="#ffffff" stroke-width="1.5"/>
<circle cx="963.30" cy="137.00" r="7" fill="#2563eb" stroke="#ffffff" stroke-width="1.5"/>
<circle cx="1279.17" cy="137.00" r="6" fill="#10b981" stroke="#ffffff" stroke-width="1.5"/>
<text x="40" y="142.00" text-anchor="start" font-size="14" font-family="Avenir Next,Segoe UI,Arial,sans-serif" fill="#111827" font-weight="600">CALM</text>
<text x="1392" y="142.00" text-anchor="start" font-size="13" font-family="Avenir Next,Segoe UI,Arial,sans-serif" fill="#374151">-37.2% / +25.2% / +123.2%</text>
<rect x="50" y="168.0" width="1330" height="34" fill="#f8fafc" opacity="0.45"/>
<line x1="736.53" y1="185.00" x2="1142.04" y2="185.00" stroke="#2563eb" stroke-width="9" stroke-linecap="round" opacity="0.35"/>
<circle cx="736.53" cy="185.00" r="6" fill="#f59e0b" stroke="#ffffff" stroke-width="1.5"/>
<circle cx="948.60" cy="185.00" r="7" fill="#2563eb" stroke="#ffffff" stroke-width="1.5"/>
<circle cx="1142.04" cy="185.00" r="6" fill="#10b981" stroke="#ffffff" stroke-width="1.5"/>
<text x="40" y="190.00" text-anchor="start" font-size="14" font-family="Avenir Next,Segoe UI,Arial,sans-serif" fill="#111827" font-weight="600">SKYW</text>
<text x="1392" y="190.00" text-anchor="start" font-size="13" font-family="Avenir Next,Segoe UI,Arial,sans-serif" fill="#374151">-45.2% / +20.6% / +80.6%</text>
<rect x="50" y="216.0" width="1330" height="34" fill="#ffffff" opacity="0.45"/>
<line x1="773.05" y1="233.00" x2="1182.53" y2="233.00" stroke="#2563eb" stroke-width="9" stroke-linecap="round" opacity="0.35"/>
<circle cx="773.05" cy="233.00" r="6" fill="#f59e0b" stroke="#ffffff" stroke-width="1.5"/>
<circle cx="946.45" cy="233.00" r="7" fill="#2563eb" stroke="#ffffff" stroke-width="1.5"/>
<circle cx="1182.53" cy="233.00" r="6" fill="#10b981" stroke="#ffffff" stroke-width="1.5"/>
<text x="40" y="238.00" text-anchor="start" font-size="14" font-family="Avenir Next,Segoe UI,Arial,sans-serif" fill="#111827" font-weight="600">FC</text>
<text x="1392" y="238.00" text-anchor="start" font-size="13" font-family="Avenir Next,Segoe UI,Arial,sans-serif" fill="#374151">-33.8% / +20.0% / +93.2%</text>
<rect x="50" y="264.0" width="1330" height="34" fill="#f8fafc" opacity="0.45"/>
<line x1="776.40" y1="281.00" x2="1172.73" y2="281.00" stroke="#2563eb" stroke-width="9" stroke-linecap="round" opacity="0.35"/>
<circle cx="776.40" cy="281.00" r="6" fill="#f59e0b" stroke="#ffffff" stroke-width="1.5"/>
<circle cx="946.44" cy="281.00" r="7" fill="#2563eb" stroke="#ffffff" stroke-width="1.5"/>
<circle cx="1172.73" cy="281.00" r="6" fill="#10b981" stroke="#ffffff" stroke-width="1.5"/>
<text x="40" y="286.00" text-anchor="start" font-size="14" font-family="Avenir Next,Segoe UI,Arial,sans-serif" fill="#111827" font-weight="600">ATGE</text>
<text x="1392" y="286.00" text-anchor="start" font-size="13" font-family="Avenir Next,Segoe UI,Arial,sans-serif" fill="#374151">-32.8% / +20.0% / +90.2%</text>
<rect x="50" y="312.0" width="1330" height="34" fill="#ffffff" opacity="0.45"/>
<line x1="781.24" y1="329.00" x2="1160.44" y2="329.00" stroke="#2563eb" stroke-width="9" stroke-linecap="round" opacity="0.35"/>
<circle cx="781.24" cy="329.00" r="6" fill="#f59e0b" stroke="#ffffff" stroke-width="1.5"/>
<circle cx="937.32" cy="329.00" r="7" fill="#2563eb" stroke="#ffffff" stroke-width="1.5"/>
<circle cx="1160.44" cy="329.00" r="6" fill="#10b981" stroke="#ffffff" stroke-width="1.5"/>
<text x="40" y="334.00" text-anchor="start" font-size="14" font-family="Avenir Next,Segoe UI,Arial,sans-serif" fill="#111827" font-weight="600">ACIW</text>
<text x="1392" y="334.00" text-anchor="start" font-size="13" font-family="Avenir Next,Segoe UI,Arial,sans-serif" fill="#374151">-31.3% / +17.1% / +86.4%</text>
<rect x="50" y="360.0" width="1330" height="34" fill="#f8fafc" opacity="0.45"/>
<line x1="731.66" y1="377.00" x2="1173.14" y2="377.00" stroke="#2563eb" stroke-width="9" stroke-linecap="round" opacity="0.35"/>
<circle cx="731.66" cy="377.00" r="6" fill="#f59e0b" stroke="#ffffff" stroke-width="1.5"/>
<circle cx="932.03" cy="377.00" r="7" fill="#2563eb" stroke="#ffffff" stroke-width="1.5"/>
<circle cx="1173.14" cy="377.00" r="6" fill="#10b981" stroke="#ffffff" stroke-width="1.5"/>
<text x="40" y="382.00" text-anchor="start" font-size="14" font-family="Avenir Next,Segoe UI,Arial,sans-serif" fill="#111827" font-weight="600">PAYC</text>
<text x="1392" y="382.00" text-anchor="start" font-size="13" font-family="Avenir Next,Segoe UI,Arial,sans-serif" fill="#374151">-46.7% / +15.5% / +90.3%</text>
<rect x="50" y="408.0" width="1330" height="34" fill="#ffffff" opacity="0.45"/>
<line x1="763.50" y1="425.00" x2="1080.62" y2="425.00" stroke="#2563eb" stroke-width="9" stroke-linecap="round" opacity="0.35"/>
<circle cx="763.50" cy="425.00" r="6" fill="#f59e0b" stroke="#ffffff" stroke-width="1.5"/>
<circle cx="923.88" cy="425.00" r="7" fill="#2563eb" stroke="#ffffff" stroke-width="1.5"/>
<circle cx="1080.62" cy="425.00" r="6" fill="#10b981" stroke="#ffffff" stroke-width="1.5"/>
<text x="40" y="430.00" text-anchor="start" font-size="14" font-family="Avenir Next,Segoe UI,Arial,sans-serif" fill="#111827" font-weight="600">QLYS</text>
<text x="1392" y="430.00" text-anchor="start" font-size="13" font-family="Avenir Next,Segoe UI,Arial,sans-serif" fill="#374151">-36.8% / +13.0% / +61.6%</text>
<rect x="50" y="456.0" width="1330" height="34" fill="#f8fafc" opacity="0.45"/>
<line x1="710.67" y1="473.00" x2="1129.40" y2="473.00" stroke="#2563eb" stroke-width="9" stroke-linecap="round" opacity="0.35"/>
<circle cx="710.67" cy="473.00" r="6" fill="#f59e0b" stroke="#ffffff" stroke-width="1.5"/>
<circle cx="916.81" cy="473.00" r="7" fill="#2563eb" stroke="#ffffff" stroke-width="1.5"/>
<circle cx="1129.40" cy="473.00" r="6" fill="#10b981" stroke="#ffffff" stroke-width="1.5"/>
<text x="40" y="478.00" text-anchor="start" font-size="14" font-family="Avenir Next,Segoe UI,Arial,sans-serif" fill="#111827" font-weight="600">LYFT</text>
<text x="1392" y="478.00" text-anchor="start" font-size="13" font-family="Avenir Next,Segoe UI,Arial,sans-serif" fill="#374151">-53.2% / +10.8% / +76.7%</text>
<rect x="50" y="504.0" width="1330" height="34" fill="#ffffff" opacity="0.45"/>
<line x1="752.42" y1="521.00" x2="1079.21" y2="521.00" stroke="#2563eb" stroke-width="9" stroke-linecap="round" opacity="0.35"/>
<circle cx="752.42" cy="521.00" r="6" fill="#f59e0b" stroke="#ffffff" stroke-width="1.5"/>
<circle cx="909.40" cy="521.00" r="7" fill="#2563eb" stroke="#ffffff" stroke-width="1.5"/>
<circle cx="1079.21" cy="521.00" r="6" fill="#10b981" stroke="#ffffff" stroke-width="1.5"/>
<text x="40" y="526.00" text-anchor="start" font-size="14" font-family="Avenir Next,Segoe UI,Arial,sans-serif" fill="#111827" font-weight="600">ANF</text>
<text x="1392" y="526.00" text-anchor="start" font-size="13" font-family="Avenir Next,Segoe UI,Arial,sans-serif" fill="#374151">-40.2% / +8.5% / +61.2%</text>
<rect x="50" y="552.0" width="1330" height="34" fill="#f8fafc" opacity="0.45"/>
<line x1="795.39" y1="569.00" x2="1059.55" y2="569.00" stroke="#2563eb" stroke-width="9" stroke-linecap="round" opacity="0.35"/>
<circle cx="795.39" cy="569.00" r="6" fill="#f59e0b" stroke="#ffffff" stroke-width="1.5"/>
<circle cx="896.94" cy="569.00" r="7" fill="#2563eb" stroke="#ffffff" stroke-width="1.5"/>
<circle cx="1059.55" cy="569.00" r="6" fill="#10b981" stroke="#ffffff" stroke-width="1.5"/>
<text x="40" y="574.00" text-anchor="start" font-size="14" font-family="Avenir Next,Segoe UI,Arial,sans-serif" fill="#111827" font-weight="600">LNC</text>
<text x="1392" y="574.00" text-anchor="start" font-size="13" font-family="Avenir Next,Segoe UI,Arial,sans-serif" fill="#374151">-26.9% / +4.6% / +55.0%</text>
<rect x="50" y="600.0" width="1330" height="34" fill="#ffffff" opacity="0.45"/>
<line x1="769.31" y1="617.00" x2="1067.19" y2="617.00" stroke="#2563eb" stroke-width="9" stroke-linecap="round" opacity="0.35"/>
<circle cx="769.31" cy="617.00" r="6" fill="#f59e0b" stroke="#ffffff" stroke-width="1.5"/>
<circle cx="887.71" cy="617.00" r="7" fill="#2563eb" stroke="#ffffff" stroke-width="1.5"/>
<circle cx="1067.19" cy="617.00" r="6" fill="#10b981" stroke="#ffffff" stroke-width="1.5"/>
<text x="40" y="622.00" text-anchor="start" font-size="14" font-family="Avenir Next,Segoe UI,Arial,sans-serif" fill="#111827" font-weight="600">HRMY</text>
<text x="1392" y="622.00" text-anchor="start" font-size="13" font-family="Avenir Next,Segoe UI,Arial,sans-serif" fill="#374151">-35.0% / +1.7% / +57.4%</text>
<rect x="50" y="648.0" width="1330" height="34" fill="#f8fafc" opacity="0.45"/>
<line x1="708.13" y1="665.00" x2="1011.69" y2="665.00" stroke="#2563eb" stroke-width="9" stroke-linecap="round" opacity="0.35"/>
<circle cx="708.13" cy="665.00" r="6" fill="#f59e0b" stroke="#ffffff" stroke-width="1.5"/>
<circle cx="885.29" cy="665.00" r="7" fill="#2563eb" stroke="#ffffff" stroke-width="1.5"/>
<circle cx="1011.69" cy="665.00" r="6" fill="#10b981" stroke="#ffffff" stroke-width="1.5"/>
<text x="40" y="670.00" text-anchor="start" font-size="14" font-family="Avenir Next,Segoe UI,Arial,sans-serif" fill="#111827" font-weight="600">CARG</text>
<text x="1392" y="670.00" text-anchor="start" font-size="13" font-family="Avenir Next,Segoe UI,Arial,sans-serif" fill="#374151">-54.0% / +1.0% / +40.2%</text>
<rect x="50" y="696.0" width="1330" height="34" fill="#ffffff" opacity="0.45"/>
<line x1="797.29" y1="713.00" x2="912.20" y2="713.00" stroke="#2563eb" stroke-width="9" stroke-linecap="round" opacity="0.35"/>
<circle cx="797.29" cy="713.00" r="6" fill="#f59e0b" stroke="#ffffff" stroke-width="1.5"/>
<circle cx="882.48" cy="713.00" r="7" fill="#2563eb" stroke="#ffffff" stroke-width="1.5"/>
<circle cx="912.20" cy="713.00" r="6" fill="#10b981" stroke="#ffffff" stroke-width="1.5"/>
<text x="40" y="718.00" text-anchor="start" font-size="14" font-family="Avenir Next,Segoe UI,Arial,sans-serif" fill="#111827" font-weight="600">BHF</text>
<text x="1392" y="718.00" text-anchor="start" font-size="13" font-family="Avenir Next,Segoe UI,Arial,sans-serif" fill="#374151">-26.3% / +0.1% / +9.3%</text>
<rect x="50" y="744.0" width="1330" height="34" fill="#f8fafc" opacity="0.45"/>
<line x1="682.50" y1="761.00" x2="1138.50" y2="761.00" stroke="#2563eb" stroke-width="9" stroke-linecap="round" opacity="0.35"/>
<circle cx="682.50" cy="761.00" r="6" fill="#f59e0b" stroke="#ffffff" stroke-width="1.5"/>
<circle cx="878.93" cy="761.00" r="7" fill="#2563eb" stroke="#ffffff" stroke-width="1.5"/>
<circle cx="1138.50" cy="761.00" r="6" fill="#10b981" stroke="#ffffff" stroke-width="1.5"/>
<text x="40" y="766.00" text-anchor="start" font-size="14" font-family="Avenir Next,Segoe UI,Arial,sans-serif" fill="#111827" font-weight="600">SM</text>
<text x="1392" y="766.00" text-anchor="start" font-size="13" font-family="Avenir Next,Segoe UI,Arial,sans-serif" fill="#374151">-61.9% / -1.0% / +79.5%</text>
<rect x="50" y="792.0" width="1330" height="34" fill="#ffffff" opacity="0.45"/>
<line x1="710.61" y1="809.00" x2="924.64" y2="809.00" stroke="#2563eb" stroke-width="9" stroke-linecap="round" opacity="0.35"/>
<circle cx="710.61" cy="809.00" r="6" fill="#f59e0b" stroke="#ffffff" stroke-width="1.5"/>
<circle cx="876.61" cy="809.00" r="7" fill="#2563eb" stroke="#ffffff" stroke-width="1.5"/>
<circle cx="924.64" cy="809.00" r="6" fill="#10b981" stroke="#ffffff" stroke-width="1.5"/>
<text x="40" y="814.00" text-anchor="start" font-size="14" font-family="Avenir Next,Segoe UI,Arial,sans-serif" fill="#111827" font-weight="600">FHI</text>
<text x="1392" y="814.00" text-anchor="start" font-size="13" font-family="Avenir Next,Segoe UI,Arial,sans-serif" fill="#374151">-53.2% / -1.7% / +13.2%</text>
<rect x="50" y="840.0" width="1330" height="34" fill="#f8fafc" opacity="0.45"/>
<line x1="666.39" y1="857.00" x2="1064.40" y2="857.00" stroke="#2563eb" stroke-width="9" stroke-linecap="round" opacity="0.35"/>
<circle cx="666.39" cy="857.00" r="6" fill="#f59e0b" stroke="#ffffff" stroke-width="1.5"/>
<circle cx="869.91" cy="857.00" r="7" fill="#2563eb" stroke="#ffffff" stroke-width="1.5"/>
<circle cx="1064.40" cy="857.00" r="6" fill="#10b981" stroke="#ffffff" stroke-width="1.5"/>
<text x="40" y="862.00" text-anchor="start" font-size="14" font-family="Avenir Next,Segoe UI,Arial,sans-serif" fill="#111827" font-weight="600">FIG</text>
<text x="1392" y="862.00" text-anchor="start" font-size="13" font-family="Avenir Next,Segoe UI,Arial,sans-serif" fill="#374151">-66.9% / -3.8% / +56.6%</text>
<rect x="50" y="888.0" width="1330" height="34" fill="#ffffff" opacity="0.45"/>
<line x1="726.75" y1="905.00" x2="1020.57" y2="905.00" stroke="#2563eb" stroke-width="9" stroke-linecap="round" opacity="0.35"/>
<circle cx="726.75" cy="905.00" r="6" fill="#f59e0b" stroke="#ffffff" stroke-width="1.5"/>
<circle cx="857.32" cy="905.00" r="7" fill="#2563eb" stroke="#ffffff" stroke-width="1.5"/>
<circle cx="1020.57" cy="905.00" r="6" fill="#10b981" stroke="#ffffff" stroke-width="1.5"/>
<text x="40" y="910.00" text-anchor="start" font-size="14" font-family="Avenir Next,Segoe UI,Arial,sans-serif" fill="#111827" font-weight="600">TTD</text>
<text x="1392" y="910.00" text-anchor="start" font-size="13" font-family="Avenir Next,Segoe UI,Arial,sans-serif" fill="#374151">-48.2% / -7.7% / +43.0%</text>
<rect x="50" y="936.0" width="1330" height="34" fill="#f8fafc" opacity="0.45"/>
<line x1="687.60" y1="953.00" x2="901.11" y2="953.00" stroke="#2563eb" stroke-width="9" stroke-linecap="round" opacity="0.35"/>
<circle cx="687.60" cy="953.00" r="6" fill="#f59e0b" stroke="#ffffff" stroke-width="1.5"/>
<circle cx="856.04" cy="953.00" r="7" fill="#2563eb" stroke="#ffffff" stroke-width="1.5"/>
<circle cx="901.11" cy="953.00" r="6" fill="#10b981" stroke="#ffffff" stroke-width="1.5"/>
<text x="40" y="958.00" text-anchor="start" font-size="14" font-family="Avenir Next,Segoe UI,Arial,sans-serif" fill="#111827" font-weight="600">ASML</text>
<text x="1392" y="958.00" text-anchor="start" font-size="13" font-family="Avenir Next,Segoe UI,Arial,sans-serif" fill="#374151">-60.3% / -8.1% / +5.9%</text>
<rect x="50" y="984.0" width="1330" height="34" fill="#ffffff" opacity="0.45"/>
<line x1="719.68" y1="1001.00" x2="991.08" y2="1001.00" stroke="#2563eb" stroke-width="9" stroke-linecap="round" opacity="0.35"/>
<circle cx="719.68" cy="1001.00" r="6" fill="#f59e0b" stroke="#ffffff" stroke-width="1.5"/>
<circle cx="851.60" cy="1001.00" r="7" fill="#2563eb" stroke="#ffffff" stroke-width="1.5"/>
<circle cx="991.08" cy="1001.00" r="6" fill="#10b981" stroke="#ffffff" stroke-width="1.5"/>
<text x="40" y="1006.00" text-anchor="start" font-size="14" font-family="Avenir Next,Segoe UI,Arial,sans-serif" fill="#111827" font-weight="600">LPLA</text>
<text x="1392" y="1006.00" text-anchor="start" font-size="13" font-family="Avenir Next,Segoe UI,Arial,sans-serif" fill="#374151">-50.4% / -9.5% / +33.8%</text>
<rect x="50" y="1032.0" width="1330" height="34" fill="#f8fafc" opacity="0.45"/>
<line x1="703.90" y1="1049.00" x2="929.93" y2="1049.00" stroke="#2563eb" stroke-width="9" stroke-linecap="round" opacity="0.35"/>
<circle cx="703.90" cy="1049.00" r="6" fill="#f59e0b" stroke="#ffffff" stroke-width="1.5"/>
<circle cx="805.99" cy="1049.00" r="7" fill="#2563eb" stroke="#ffffff" stroke-width="1.5"/>
<circle cx="929.93" cy="1049.00" r="6" fill="#10b981" stroke="#ffffff" stroke-width="1.5"/>
<text x="40" y="1054.00" text-anchor="start" font-size="14" font-family="Avenir Next,Segoe UI,Arial,sans-serif" fill="#111827" font-weight="600">WHD</text>
<text x="1392" y="1054.00" text-anchor="start" font-size="13" font-family="Avenir Next,Segoe UI,Arial,sans-serif" fill="#374151">-55.3% / -23.6% / +14.8%</text>
<rect x="50" y="1080.0" width="1330" height="34" fill="#ffffff" opacity="0.45"/>
<line x1="704.48" y1="1097.00" x2="911.46" y2="1097.00" stroke="#2563eb" stroke-width="9" stroke-linecap="round" opacity="0.35"/>
<circle cx="704.48" cy="1097.00" r="6" fill="#f59e0b" stroke="#ffffff" stroke-width="1.5"/>
<circle cx="804.38" cy="1097.00" r="7" fill="#2563eb" stroke="#ffffff" stroke-width="1.5"/>
<circle cx="911.46" cy="1097.00" r="6" fill="#10b981" stroke="#ffffff" stroke-width="1.5"/>
<text x="40" y="1102.00" text-anchor="start" font-size="14" font-family="Avenir Next,Segoe UI,Arial,sans-serif" fill="#111827" font-weight="600">BRC</text>
<text x="1392" y="1102.00" text-anchor="start" font-size="13" font-family="Avenir Next,Segoe UI,Arial,sans-serif" fill="#374151">-55.1% / -24.1% / +9.1%</text>
<rect x="50" y="1128.0" width="1330" height="34" fill="#f8fafc" opacity="0.45"/>
<line x1="627.85" y1="1145.00" x2="1006.83" y2="1145.00" stroke="#2563eb" stroke-width="9" stroke-linecap="round" opacity="0.35"/>
<circle cx="627.85" cy="1145.00" r="6" fill="#f59e0b" stroke="#ffffff" stroke-width="1.5"/>
<circle cx="768.97" cy="1145.00" r="7" fill="#2563eb" stroke="#ffffff" stroke-width="1.5"/>
<circle cx="1006.83" cy="1145.00" r="6" fill="#10b981" stroke="#ffffff" stroke-width="1.5"/>
<text x="40" y="1150.00" text-anchor="start" font-size="14" font-family="Avenir Next,Segoe UI,Arial,sans-serif" fill="#111827" font-weight="600">UPWK</text>
<text x="1392" y="1150.00" text-anchor="start" font-size="13" font-family="Avenir Next,Segoe UI,Arial,sans-serif" fill="#374151">-78.9% / -35.1% / +38.7%</text>
<rect x="50" y="1176.0" width="1330" height="34" fill="#ffffff" opacity="0.45"/>
<line x1="672.02" y1="1193.00" x2="891.76" y2="1193.00" stroke="#2563eb" stroke-width="9" stroke-linecap="round" opacity="0.35"/>
<circle cx="672.02" cy="1193.00" r="6" fill="#f59e0b" stroke="#ffffff" stroke-width="1.5"/>
<circle cx="761.90" cy="1193.00" r="7" fill="#2563eb" stroke="#ffffff" stroke-width="1.5"/>
<circle cx="891.76" cy="1193.00" r="6" fill="#10b981" stroke="#ffffff" stroke-width="1.5"/>
<text x="40" y="1198.00" text-anchor="start" font-size="14" font-family="Avenir Next,Segoe UI,Arial,sans-serif" fill="#111827" font-weight="600">ALL</text>
<text x="1392" y="1198.00" text-anchor="start" font-size="13" font-family="Avenir Next,Segoe UI,Arial,sans-serif" fill="#374151">-65.2% / -37.3% / +3.0%</text>
<rect x="50" y="1224.0" width="1330" height="34" fill="#f8fafc" opacity="0.45"/>
<line x1="270.83" y1="1241.00" x2="870.19" y2="1241.00" stroke="#2563eb" stroke-width="9" stroke-linecap="round" opacity="0.35"/>
<circle cx="270.83" cy="1241.00" r="6" fill="#f59e0b" stroke="#ffffff" stroke-width="1.5"/>
<circle cx="689.31" cy="1241.00" r="7" fill="#2563eb" stroke="#ffffff" stroke-width="1.5"/>
<circle cx="870.19" cy="1241.00" r="6" fill="#10b981" stroke="#ffffff" stroke-width="1.5"/>
<text x="40" y="1246.00" text-anchor="start" font-size="14" font-family="Avenir Next,Segoe UI,Arial,sans-serif" fill="#111827" font-weight="600">CB</text>
<text x="1392" y="1246.00" text-anchor="start" font-size="13" font-family="Avenir Next,Segoe UI,Arial,sans-serif" fill="#374151">-189.6% / -59.8% / -3.7%</text>
<rect x="50" y="1272.0" width="1330" height="34" fill="#ffffff" opacity="0.45"/>
<line x1="592.91" y1="1289.00" x2="890.63" y2="1289.00" stroke="#2563eb" stroke-width="9" stroke-linecap="round" opacity="0.35"/>
<circle cx="592.91" cy="1289.00" r="6" fill="#f59e0b" stroke="#ffffff" stroke-width="1.5"/>
<circle cx="656.63" cy="1289.00" r="7" fill="#2563eb" stroke="#ffffff" stroke-width="1.5"/>
<circle cx="890.63" cy="1289.00" r="6" fill="#10b981" stroke="#ffffff" stroke-width="1.5"/>
<text x="40" y="1294.00" text-anchor="start" font-size="14" font-family="Avenir Next,Segoe UI,Arial,sans-serif" fill="#111827" font-weight="600">INTC</text>
<text x="1392" y="1294.00" text-anchor="start" font-size="13" font-family="Avenir Next,Segoe UI,Arial,sans-serif" fill="#374151">-89.7% / -69.9% / +2.6%</text>
<line x1="882.10" y1="104" x2="882.10" y2="1320" stroke="#ffffff" stroke-width="5" opacity="0.95"/>
<line x1="882.10" y1="104" x2="882.10" y2="1320" stroke="#111827" stroke-width="2.6"/>
<text x="882.10" y="86" text-anchor="middle" font-size="12" font-family="Avenir Next,Segoe UI,Arial,sans-serif" fill="#111827" font-weight="700">0% MoS</text>
</svg>
